<!DOCTYPE svg PUBLIC "-//W3C//DTD SVG 1.1//EN" "http://www.w3.org/Graphics/SVG/1.1/DTD/svg11.dtd">
<!-- Uploaded to: SVG Repo, www.svgrepo.com, Transformed by: SVG Repo Mixer Tools -->
<svg height="800px" width="800px" version="1.1" id="Capa_1" xmlns="http://www.w3.org/2000/svg" xmlns:xlink="http://www.w3.org/1999/xlink" viewBox="0 0 25.896 25.896" xml:space="preserve" fill="#555" transform="matrix(1, 0, 0, 1, 0, 0)" stroke="#555">
<g id="SVGRepo_bgCarrier" stroke-width="0"/>
<g id="SVGRepo_tracerCarrier" stroke-linecap="round" stroke-linejoin="round"/>
<g id="SVGRepo_iconCarrier"> <g> <path style="fill:#55;" d="M9.227,12.589c3.59-3.087,6.526-4.919,8.776-6.085c1.386-2.946,3.311-5.476,3.732-5.866 c-0.26,0.099-0.523,0.202-0.807,0.327c-2.273,1.003-8.808,4.693-13.427,9.939C-0.111,19.55-0.191,22.61,0.181,22.77 C0.864,23.065,2.077,18.735,9.227,12.589z"/> <g> <g> <path style="fill:#55;" d="M24.923,4.922c1.252-2.83,1.197-4.529-0.094-4.862c-1.384-0.357-2.338,0.898-3.422,3.198 c-0.813,1.723-2.045,6.303-8.17,13.428C7.059,23.874,2.706,25.092,3.003,25.78c0.161,0.373,3.237,0.293,11.928-7.359 C20.204,13.777,23.914,7.207,24.923,4.922z"/> </g> </g> </g> </g>
</svg>